# 3ds Max Wavefront OBJ Exporter v0.97b - (c)2007 guruware
# File Created: 12.01.2019 21:28:32

mtllib roadV1.mtl

#
# object Box001
#

v  4.2848 0.0000 39.1934
v  4.2848 0.0000 -34.4045
v  7.3094 0.0000 -34.4045
v  7.3094 0.0000 39.1934
v  4.2848 2.0164 39.1934
v  7.3094 2.0164 39.1934
v  7.3094 2.0164 -34.4045
v  4.2848 2.0164 -34.4045
v  -46.3768 0.0000 38.1853
v  -46.3768 0.0000 -34.1525
v  -43.6043 0.0000 -34.1525
v  -43.6043 0.0000 38.1853
v  -46.3768 2.2684 38.1853
v  -43.6043 2.2684 38.1853
v  -43.6043 2.2684 -34.1525
v  -46.3768 2.2684 -34.1525
v  -43.8865 0.0000 20.1949
v  -43.8865 0.0000 38.6628
v  -31.9677 0.0000 38.6628
v  -31.9677 0.0000 20.1949
v  -20.0489 0.0000 38.6628
v  -20.0489 0.0000 20.1949
v  -8.1302 0.0000 38.6628
v  -8.1302 0.0000 20.1949
v  3.7886 0.0000 38.6628
v  3.7886 0.0000 20.1949
v  -43.8865 0.0000 1.7269
v  -31.9677 0.0000 1.7269
v  -20.0489 0.0000 1.7269
v  -8.1302 0.0000 1.7269
v  3.7886 0.0000 1.7269
v  -43.8865 0.0000 -16.7410
v  -31.9677 0.0000 -16.7410
v  -20.0489 0.0000 -16.7410
v  -8.1302 0.0000 -16.7410
v  3.7886 0.0000 -16.7410
v  -43.8865 0.0000 -35.2090
v  -31.9677 0.0000 -35.2090
v  -20.0489 0.0000 -35.2090
v  -8.1302 0.0000 -35.2090
v  3.7886 0.0000 -35.2090
# 41 vertices

vn -0.5774 -0.5774 0.5774
vn -0.5774 -0.5774 -0.5774
vn 0.5774 -0.5774 -0.5774
vn 0.5774 -0.5774 0.5774
vn -0.5774 0.5774 0.5774
vn 0.5774 0.5774 0.5774
vn 0.5774 0.5774 -0.5774
vn -0.5774 0.5774 -0.5774
vn 0.0000 1.0000 -0.0000
# 9 vertex normals

vt 1.0000 0.0000 0.0000
vt 1.0000 1.0000 0.0000
vt 0.0000 1.0000 0.0000
vt 0.0000 0.0000 0.0000
vt 0.0000 0.2500 0.0000
vt 0.2500 0.0000 0.0000
vt 0.2500 0.2500 0.0000
vt 0.5000 0.0000 0.0000
vt 0.5000 0.2500 0.0000
vt 0.7500 0.0000 0.0000
vt 0.7500 0.2500 0.0000
vt 1.0000 0.2500 0.0000
vt 0.0000 0.5000 0.0000
vt 0.2500 0.5000 0.0000
vt 0.5000 0.5000 0.0000
vt 0.7500 0.5000 0.0000
vt 1.0000 0.5000 0.0000
vt 0.0000 0.7500 0.0000
vt 0.2500 0.7500 0.0000
vt 0.5000 0.7500 0.0000
vt 0.7500 0.7500 0.0000
vt 1.0000 0.7500 0.0000
vt 0.2500 1.0000 0.0000
vt 0.5000 1.0000 0.0000
vt 0.7500 1.0000 0.0000
# 25 texture coords

o Box001
g Box001
usemtl 02___Default
s 2
f 1/1/1 2/2/2 3/3/3 4/4/4 
s 4
f 5/4/5 6/1/6 7/2/7 8/3/8 
s 8
f 1/4/1 4/1/4 6/2/6 5/3/5 
s 16
f 4/4/4 3/1/3 7/2/7 6/3/6 
s 32
f 3/4/3 2/1/2 8/2/8 7/3/7 
s 64
f 2/4/2 1/1/1 5/2/5 8/3/8 
s 2
f 9/1/1 10/2/2 11/3/3 12/4/4 
s 4
f 13/4/5 14/1/6 15/2/7 16/3/8 
s 8
f 9/4/1 12/1/4 14/2/6 13/3/5 
s 16
f 12/4/4 11/1/3 15/2/7 14/3/6 
s 32
f 11/4/3 10/1/2 16/2/8 15/3/7 
s 64
f 10/4/2 9/1/1 13/2/5 16/3/8 
s 1
f 17/5/9 18/4/9 19/6/9 20/7/9 
f 20/7/9 19/6/9 21/8/9 22/9/9 
f 22/9/9 21/8/9 23/10/9 24/11/9 
f 24/11/9 23/10/9 25/1/9 26/12/9 
f 27/13/9 17/5/9 20/7/9 28/14/9 
f 28/14/9 20/7/9 22/9/9 29/15/9 
f 29/15/9 22/9/9 24/11/9 30/16/9 
f 30/16/9 24/11/9 26/12/9 31/17/9 
f 32/18/9 27/13/9 28/14/9 33/19/9 
f 33/19/9 28/14/9 29/15/9 34/20/9 
f 34/20/9 29/15/9 30/16/9 35/21/9 
f 35/21/9 30/16/9 31/17/9 36/22/9 
f 37/3/9 32/18/9 33/19/9 38/23/9 
f 38/23/9 33/19/9 34/20/9 39/24/9 
f 39/24/9 34/20/9 35/21/9 40/25/9 
f 40/25/9 35/21/9 36/22/9 41/2/9 
# 28 polygons

